<svg width="127" height="46" viewBox="0 0 127 46" fill="none" xmlns="http://www.w3.org/2000/svg">
<path d="M29.9197 0.297607V30.8132H28.223L26.1139 28.29L4.33316 3.17261V30.7794H3.33944V4.65408C3.33944 2.96967 2.98792 1.88731 2.22404 1.24467C1.69676 0.852313 1.05456 0.649372 0.17576 0.649372H0V0.351725H7.72667L28.926 24.9008V0.304372H29.9197V0.297607Z" fill="#E8E8E8"/>
<path d="M68.1069 4.35647C71.5613 7.27206 73.3189 10.9859 73.3189 15.3829C73.3189 19.78 71.5613 23.69 68.0461 26.6597C64.5309 29.6294 60.2586 31.1109 55.2765 31.1109C50.2944 31.1109 45.968 29.6294 42.5677 26.7612C39.1674 23.8456 37.4166 20.0371 37.4166 15.4371C37.4166 10.8371 39.4108 6.83235 43.3316 3.86265C46.7927 1.29206 50.9501 0 55.6888 0C60.4276 0 64.5917 1.48147 68.0461 4.40382L68.1069 4.35647ZM64.4768 26.8085C66.8766 24.4815 68.1069 20.8218 68.1069 15.8768C68.1069 10.5326 66.7617 6.48059 64.1253 3.80853C62.0162 1.68441 59.0283 0.595294 55.2832 0.595294C51.768 0.595294 48.9018 1.68441 46.7927 3.80853C44.1563 6.37912 42.811 10.2418 42.811 15.2341C42.811 20.2265 44.1563 24.3326 46.8535 27.1062C48.9626 29.2844 51.7748 30.3668 55.2291 30.3668C58.9201 30.3668 62.0229 29.1829 64.4227 26.8559L64.4836 26.8085H64.4768Z" fill="#E8E8E8"/>
<path d="M88.4748 0.649423C87.6568 0.649423 86.9538 0.8456 86.4806 1.24472C85.7167 1.88736 85.3652 2.97648 85.3652 4.65413V26.5177C85.3652 28.2021 85.7167 29.2844 86.4806 29.8797C86.947 30.2721 87.5892 30.475 88.4748 30.475H88.6505V30.7727H78.3145V30.475H78.3754C79.315 30.475 80.018 30.2788 80.5453 29.8797C81.3092 29.2844 81.6607 28.1953 81.6607 26.5177V4.65413C81.6607 2.96972 81.3092 1.88736 80.5453 1.24472C80.018 0.8456 79.3758 0.649423 78.497 0.649423H78.3213V0.351776H88.6573V0.649423H88.4815H88.4748Z" fill="#E8E8E8"/>
<path d="M102.123 16.3774V26.4635C102.123 28.148 102.475 29.2303 103.239 29.873C103.705 30.2721 104.354 30.4682 105.226 30.4682H105.402V30.7659H94.6534V30.4682C95.5931 30.4682 96.2961 30.2721 96.8166 29.8256C97.5805 29.2303 97.932 28.1412 97.932 26.4635V4.60678C97.932 2.92236 97.5805 1.83325 96.8166 1.24472C96.2894 0.852364 95.6472 0.649423 94.8224 0.649423H94.6467V0.351776H107.349C115.312 0.351776 119.882 3.17266 119.882 8.11766C119.882 12.6162 115.9 15.5859 108.931 16.2285C109.87 16.1406 111.641 17.1147 112.432 17.5747C113.575 18.2309 114.602 19.09 115.501 20.01C116.907 21.4509 118.057 23.115 119.409 24.6032C121.43 26.8221 123.627 29.9135 127 30.4209V30.7185C124.499 30.7185 121.754 31.0635 119.49 29.8797C117.408 28.7906 115.88 26.9777 114.494 25.2324C113.142 23.5344 111.878 21.7621 110.296 20.2197C108.593 18.5556 106.544 17.3785 104.293 16.4247L104.178 16.3774H102.116H102.123ZM102.123 15.7821H107.524C113.027 15.7821 114.798 12.9612 114.798 8.21236C114.798 5.93942 114.156 4.15354 112.865 2.92236C111.574 1.68442 109.762 1.04178 107.416 1.04178H102.123V15.7821Z" fill="#E8E8E8"/>
<path d="M29.9197 0.297607V30.8132H28.223L26.1139 28.29L5.00916 3.84908V30.7794H3.33944V4.65408C3.33944 2.96967 2.98792 1.88731 2.22404 1.24467C1.69676 0.852313 1.05456 0.649372 0.17576 0.649372H0V0.351725H7.72667L28.25 24.2244V0.304372H29.9197V0.297607Z" fill="url(#paint0_linear_8_261)"/>
<path d="M68.1069 4.35647C71.5613 7.27206 73.3189 10.9859 73.3189 15.3829C73.3189 19.78 71.5613 23.69 68.0461 26.6597C64.5309 29.6294 60.2586 31.1109 55.2765 31.1109C50.2944 31.1109 45.968 29.6294 42.5677 26.7612C39.1674 23.8456 37.4166 20.0371 37.4166 15.4371C37.4166 10.8371 39.4108 6.83235 43.3316 3.86265C46.7927 1.29206 50.9501 0 55.6888 0C60.4276 0 64.5917 1.48147 68.0461 4.40382L68.1069 4.35647ZM64.4768 26.8085C66.8766 24.4815 68.1069 20.8218 68.1069 15.8768C68.1069 10.5326 66.7617 6.48059 64.1253 3.80853C62.0162 1.68441 59.0283 0.595294 55.2832 0.595294C51.768 0.595294 48.9018 1.68441 46.7927 3.80853C44.1563 6.37912 42.811 10.2418 42.811 15.2341C42.811 20.2265 44.1563 24.3326 46.8535 27.1062C48.9626 29.2844 51.7748 30.3668 55.2291 30.3668C58.9201 30.3668 62.0229 29.1829 64.4227 26.8559L64.4836 26.8085H64.4768Z" fill="url(#paint1_linear_8_261)"/>
<path d="M88.4748 0.649423C87.6568 0.649423 86.9538 0.8456 86.4806 1.24472C85.7167 1.88736 85.3652 2.97648 85.3652 4.65413V26.5177C85.3652 28.2021 85.7167 29.2844 86.4806 29.8797C86.947 30.2721 87.5892 30.475 88.4748 30.475H88.6505V30.7727H78.3145V30.475H78.3754C79.315 30.475 80.018 30.2788 80.5453 29.8797C81.3092 29.2844 81.6607 28.1953 81.6607 26.5177V4.65413C81.6607 2.96972 81.3092 1.88736 80.5453 1.24472C80.018 0.8456 79.3758 0.649423 78.497 0.649423H78.3213V0.351776H88.6573V0.649423H88.4815H88.4748Z" fill="url(#paint2_linear_8_261)"/>
<path d="M102.123 16.3774V26.4635C102.123 28.148 102.475 29.2303 103.239 29.873C103.705 30.2721 104.354 30.4682 105.226 30.4682H105.402V30.7659H94.6534V30.4682C95.5931 30.4682 96.2961 30.2721 96.8166 29.8256C97.5805 29.2303 97.932 28.1412 97.932 26.4635V4.60678C97.932 2.92236 97.5805 1.83325 96.8166 1.24472C96.2894 0.852364 95.6472 0.649423 94.8224 0.649423H94.6467V0.351776H107.349C115.312 0.351776 119.882 3.17266 119.882 8.11766C119.882 12.6162 115.9 15.5859 108.931 16.2285C109.87 16.1406 111.641 17.1147 112.432 17.5747C113.575 18.2309 114.602 19.09 115.501 20.01C116.907 21.4509 118.057 23.115 119.409 24.6032C121.43 26.8221 123.627 29.9135 127 30.4209V30.7185C124.499 30.7185 121.754 31.0635 119.49 29.8797C117.408 28.7906 115.88 26.9777 114.494 25.2324C113.142 23.5344 111.878 21.7621 110.296 20.2197C108.593 18.5556 106.544 17.3785 104.293 16.4247L104.178 16.3774H102.116H102.123ZM102.123 15.7821H107.524C113.027 15.7821 114.798 12.9612 114.798 8.21236C114.798 5.93942 114.156 4.15354 112.865 2.92236C111.574 1.68442 109.762 1.04178 107.416 1.04178H102.123V15.7821Z" fill="url(#paint3_linear_8_261)"/>
<path d="M99.8928 37.5464H101.472V37.6838H101.438C101.106 37.6838 100.808 37.9244 100.419 38.5199L98.6911 41.3029V43.6392C98.7025 44.0172 98.7712 44.2462 98.9085 44.3836C99.0001 44.4753 99.126 44.5096 99.2748 44.5096C99.2862 44.5096 99.3434 44.5096 99.3549 44.5096V44.6471H97.0545V44.5096H97.1232C97.2834 44.5096 97.4093 44.4638 97.4894 44.3836C97.6267 44.2462 97.6954 44.0057 97.6954 43.6278V41.7495L95.9215 38.5428C95.8642 38.4512 95.807 38.3596 95.7498 38.2679C95.4866 37.8671 95.2691 37.6953 95.0288 37.6838H94.9944V37.5464H97.2948V37.6838H97.2147C97.0659 37.6838 96.9744 37.7297 96.9171 37.8098C96.837 37.9244 96.8714 38.119 97.0087 38.4168L98.4965 41.1425L99.9729 38.7948C100.316 38.245 100.419 37.9702 100.339 37.8213C100.282 37.7297 100.167 37.6838 99.9958 37.6838H99.8928V37.5464Z" fill="white"/>
<path d="M87.1896 43.078L87.327 43.1124L87.3155 43.1468L87.018 44.3264L87.0065 44.3378C86.7891 44.418 86.5602 44.4867 86.4228 44.5211C86.0337 44.6242 85.6103 44.7158 85.1868 44.7387C85.1067 44.7387 85.0151 44.7387 84.9236 44.7387C84.2598 44.7387 83.39 44.6471 82.669 44.2577C82.3027 44.063 81.9709 43.7767 81.6962 43.4331C81.1926 42.8032 80.9179 41.887 80.9523 40.9937C80.9866 39.711 81.6733 38.5657 82.7605 37.9014C83.3785 37.535 84.0996 37.4662 84.5917 37.4662C84.729 37.4662 84.8664 37.4662 85.0151 37.4777C85.3127 37.5121 85.5988 37.5579 85.8849 37.6266C86.0452 37.6609 86.2054 37.7068 86.3656 37.7526L86.4114 37.764C86.4686 37.7869 86.5258 37.7984 86.5945 37.8213C86.7662 37.8671 86.8806 37.8556 86.9378 37.7755L86.9493 37.764H87.0981V39.4934H86.9607L86.9493 39.4705C86.9264 39.4017 86.8921 39.3445 86.8577 39.2643C86.6403 38.7948 86.3656 38.2908 85.9422 38.0389C85.5645 37.8213 85.1181 37.7068 84.7061 37.7068C83.9737 37.7068 83.3785 37.9473 82.9093 38.4168C82.3485 39.0009 82.0281 39.94 82.0624 40.9937C82.0739 41.6465 82.2226 42.3451 82.4515 42.8375C82.7033 43.3987 83.0466 43.8225 83.4701 44.0859C83.6189 44.1775 83.7677 44.2577 83.9279 44.3149C84.4772 44.5211 85.1639 44.544 85.7476 44.3951C85.9422 44.3378 86.1367 44.2462 86.3542 44.0973C86.5258 43.9828 86.6975 43.8225 86.8577 43.6163C86.9378 43.5132 87.018 43.3873 87.0981 43.2498L87.1896 43.078Z" fill="white"/>
<path d="M71.5751 37.5464H73.1544V37.6838H73.0743C72.9141 37.6838 72.7997 37.7297 72.7081 37.8098C72.5708 37.9358 72.5135 38.245 72.5021 38.5657V44.6471H72.113L71.701 44.0515L67.5008 38.3366V43.6392C67.5008 44.0057 67.5694 44.2348 67.7068 44.3722C67.7983 44.4638 67.9242 44.5096 68.073 44.5096C68.0845 44.5096 68.1417 44.5096 68.1417 44.5096V44.6471H66.5852V44.5096H66.6195C66.7912 44.5096 66.9285 44.4753 67.0201 44.3836C67.1574 44.2462 67.2261 44.0057 67.2261 43.6278V38.5657C67.2261 38.1878 67.1574 37.9587 67.0201 37.8213C66.9285 37.7297 66.8027 37.6838 66.6539 37.6838H66.5852V37.5464H68.1417L68.1531 37.5579L72.2274 43.1468V38.5657C72.2274 38.1878 72.1588 37.9587 72.0214 37.8213C71.9299 37.7297 71.804 37.6838 71.6552 37.6838H71.5751V37.5464Z" fill="white"/>
<path d="M58.5824 43.2956V44.6471H53.5468V44.5096H53.6154C53.7642 44.5096 53.8901 44.4638 53.9816 44.3836C54.119 44.2462 54.1877 44.0057 54.1877 43.6278V38.5657C54.1877 38.1878 54.119 37.9587 53.9816 37.8213C53.8901 37.7297 53.7756 37.6838 53.6154 37.6838H53.5468V37.5464H58.365V38.7719H58.2276L58.2162 38.7489C57.9415 38.0732 57.4265 37.7755 56.488 37.7755H55.2177V40.6844H56.1905C56.9573 40.6844 57.3349 40.5241 57.5409 40.1004L57.5638 40.0316H57.7126V41.6465H57.5753L57.5409 41.5663C57.3349 41.0967 56.9573 40.9135 56.1905 40.9135H55.2177V44.418H56.7055C57.5524 44.418 58.0331 44.1775 58.3192 43.5934C58.3192 43.582 58.4451 43.2956 58.4451 43.2956H58.5824Z" fill="white"/>
<path d="M43.2618 41.3029H45.5621V41.4403H45.4935C45.3333 41.4403 45.2188 41.4861 45.1158 41.5777C44.9785 41.7152 44.9212 41.9557 44.9212 42.3336V44.1546H44.8984C44.5893 44.3264 43.9713 44.5325 43.9256 44.5554L43.7882 44.5898C43.4105 44.6929 42.9871 44.7387 42.5408 44.7387C41.2132 44.7387 40.1488 44.292 39.485 43.4445C38.9929 42.8146 38.7068 41.8984 38.7411 41.0051C38.7755 39.7224 39.4621 38.5657 40.5494 37.9014C41.0415 37.6151 41.6595 37.4662 42.3576 37.4662C42.495 37.4662 42.6323 37.4662 42.7811 37.4777C43.0787 37.5006 43.3648 37.5579 43.6623 37.6266C43.8226 37.6609 44.0057 37.7068 44.1316 37.7526L44.2689 37.7869C44.2918 37.7984 44.3261 37.8098 44.3605 37.8098C44.4749 37.8442 44.6351 37.8671 44.7038 37.7755L44.7152 37.764H44.864V39.5048H44.7267L44.7152 39.4819C44.6923 39.4247 44.6695 39.3559 44.6237 39.2643C44.4062 38.8062 44.1316 38.2908 43.7196 38.0503C43.3304 37.8213 42.8955 37.7068 42.4721 37.7068C41.7396 37.7068 41.1445 37.9473 40.6867 38.4168C40.1145 39.0009 39.8055 39.9515 39.8284 41.0051C39.8398 41.6694 39.9886 42.3565 40.2175 42.8604C40.4693 43.4216 40.8126 43.8454 41.2361 44.1088C41.8541 44.4867 42.5865 44.6012 43.2961 44.4066C43.4907 44.3493 43.6852 44.2691 43.8683 44.1775L43.9027 44.1546V42.3336C43.9027 41.9557 43.834 41.7152 43.6967 41.5777C43.6051 41.4861 43.4792 41.4403 43.319 41.4403H43.2618V41.3029Z" fill="white"/>
<path d="M31.672 44.5096V44.6471H29.074V44.5096C29.074 44.5096 29.2571 44.5096 29.2915 44.5096C29.4403 44.4867 29.5318 44.4409 29.6005 44.3607C29.6806 44.2348 29.6806 44.0286 29.5776 43.7538L28.8222 41.9442H26.2701L25.6864 43.5362C25.5605 43.9255 25.5605 44.1775 25.675 44.3378C25.7665 44.4524 25.9153 44.5096 26.1442 44.5096H26.2243V44.6471H24.3817V44.5096H24.4389C24.8281 44.5096 25.1027 44.2577 25.3316 43.685L27.5977 37.5464H28.0211L28.0326 37.5693L30.6877 43.685C30.9052 44.1546 31.1341 44.3951 31.4316 44.4753C31.4545 44.4867 31.4774 44.4867 31.5003 44.4982C31.5346 44.4982 31.672 44.5096 31.672 44.5096ZM26.3502 41.7152H28.7192L27.4489 38.6917L26.3502 41.7152Z" fill="white"/>
<defs>
<linearGradient id="paint0_linear_8_261" x1="15.1915" y1="-6.96512" x2="15.1915" y2="61.4058" gradientUnits="userSpaceOnUse">
<stop stop-color="#231F20"/>
<stop offset="0.32" stop-color="white"/>
<stop offset="0.91" stop-color="#231F20"/>
<stop offset="1" stop-color="#231F20"/>
</linearGradient>
<linearGradient id="paint1_linear_8_261" x1="55.6457" y1="-7.4044" x2="55.6457" y2="62.3003" gradientUnits="userSpaceOnUse">
<stop stop-color="#231F20"/>
<stop offset="0.32" stop-color="white"/>
<stop offset="0.91" stop-color="#231F20"/>
<stop offset="1" stop-color="#231F20"/>
</linearGradient>
<linearGradient id="paint2_linear_8_261" x1="83.566" y1="-6.88841" x2="83.566" y2="61.2703" gradientUnits="userSpaceOnUse">
<stop stop-color="#231F20"/>
<stop offset="0.32" stop-color="white"/>
<stop offset="0.91" stop-color="#231F20"/>
<stop offset="1" stop-color="#231F20"/>
</linearGradient>
<linearGradient id="paint3_linear_8_261" x1="111.074" y1="-6.8868" x2="111.074" y2="61.2567" gradientUnits="userSpaceOnUse">
<stop stop-color="#231F20"/>
<stop offset="0.32" stop-color="white"/>
<stop offset="0.91" stop-color="#231F20"/>
<stop offset="1" stop-color="#231F20"/>
</linearGradient>
</defs>
</svg>
